<?xml version="1.0" encoding="UTF-8"?>
<svg width="32px" height="32px" viewBox="0 0 32 32" version="1.1" xmlns="http://www.w3.org/2000/svg" xmlns:xlink="http://www.w3.org/1999/xlink">
    <!-- Generator: Sketch 64 (93537) - https://sketch.com -->
    <title>mathematics-colour</title>
    <desc>Created with Sketch.</desc>
    <g id="mathematics-colour" stroke="none" stroke-width="1" fill="none" fill-rule="evenodd">
        <g id="Group-2">
            <rect id="Rectangle" x="0" y="0" width="32" height="32"></rect>
        </g>
        <path d="M13,18 C13.5522847,18 14,18.4477153 14,19 C14,19.5128358 13.6139598,19.9355072 13.1166211,19.9932723 L13,20 L12,20 L12,25 C12,25.5128358 12.3860402,25.9355072 12.8833789,25.9932723 L13,26 C13.5522847,26 14,26.4477153 14,27 C14,27.5522847 13.5522847,28 13,28 C11.3431458,28 10,26.6568542 10,25 L10,20 L8,20 L8,25 C8,25.5522847 7.55228475,26 7,26 C6.48716416,26 6.06449284,25.6139598 6.00672773,25.1166211 L6,25 L6,20 L5,20 C4.44771525,20 4,19.5522847 4,19 C4,18.4871642 4.38604019,18.0644928 4.88337887,18.0067277 L5,18 L13,18 Z M16,4 C16.5522847,4 17,4.44771525 17,5 L16.999,5.017 L16.999,15 L27,15 L27,15 C27.5522847,15 28,15.4477153 28,16 C28,22.627417 22.627417,28 16,28 C15.4477153,28 15,27.5522847 15,27 C15,26.4477153 15.4477153,26 16,26 C21.1849719,26 25.4482817,22.0538953 25.9505155,17.0010997 L16.2975086,16.9986964 C16.2197257,16.9970837 16.1675564,16.9935663 16.1000564,16.9860582 C15.8226288,16.9551999 15.5770836,16.8667089 15.3548408,16.6442279 C15.1327888,16.4219379 15.0445739,16.176634 15.0138006,15.8993772 L15.0035132,15.7727056 L14.9998932,15.5 L14.9989003,6.04948449 C9.94610473,6.55171825 6,10.8150281 6,16 C6,16.5522847 5.55228475,17 5,17 C4.44771525,17 4,16.5522847 4,16 C4,9.47454326 9.20854437,4.16560725 15.6950252,4.00379986 L15.9998932,4 L15.9998932,4 L16,4 Z M20.2980266,12.9986974 C20.2201996,12.9970861 20.1680112,12.9935718 20.100506,12.9860712 C19.8231248,12.9552511 19.577676,12.8668895 19.3553932,12.6446068 C19.1331105,12.422324 19.0447489,12.1768752 19.0139288,11.899494 L19.0036254,11.7727711 C19.0020697,11.7401285 19.0011634,11.7044892 19.0006459,11.6607338 L19,5 C19,4.44771525 19.4477153,4 20,4 C24.3349143,4 27.8645429,7.44783777 27.9961932,11.7508207 L28,12 C28,12.5128358 27.6139598,12.9355072 27.1166211,12.9932723 L27,13 L27,13 L20.2980266,12.9986974 Z M21.0008069,6.08309386 L21,11 L25.9170737,11.0001915 C25.495669,8.48786487 23.5129932,6.50491217 21.0008069,6.08309386 Z" id="Combined-Shape" fill="#0080EE" fill-rule="nonzero"></path>
    </g>
</svg>