<?xml version="1.0" encoding="UTF-8"?>
<svg width="32px" height="32px" viewBox="0 0 32 32" version="1.1" xmlns="http://www.w3.org/2000/svg" xmlns:xlink="http://www.w3.org/1999/xlink">
    <!-- Generator: Sketch 64 (93537) - https://sketch.com -->
    <title>architecture-colour</title>
    <desc>Created with Sketch.</desc>
    <g id="architecture-colour" stroke="none" stroke-width="1" fill="none" fill-rule="evenodd">
        <g id="Group-2">
            <rect id="Rectangle" x="0" y="0" width="32" height="32"></rect>
        </g>
        <path d="M26.9955005,4 C27.5477852,4 27.9955005,4.44771525 27.9955005,5 C27.9955005,5.51283584 27.6094603,5.93550716 27.1121216,5.99327227 L26.9955005,6 L25.999,6 L26.0030161,7.0023903 C26.3812294,7.0052714 26.6187613,7.0116086 26.7952512,7.02628682 L26.8716118,7.03355721 L27.0057299,7.05195973 C27.6396143,7.15933014 28.0112034,7.62347191 27.9946972,8.21606321 L27.9946972,8.21606321 L27.9855899,8.46572817 C27.9601633,8.95666575 27.8872013,9.40005263 27.6873644,9.93737672 C27.3653658,10.8031708 26.800014,11.4628406 25.994187,11.7839808 L25.99797,18.9357627 C25.9993165,18.9570019 26,18.9784211 26,19 L25.996,19.062 L25.9992814,22.9617357 C25.999759,22.9744313 26,22.9871875 26,23 L25.998,23.037 L26,25.9999942 C26.0004188,27.6000888 25.5442641,27.9567232 23.6197044,27.9960805 L23.2002355,28 L19.0173091,27.9998532 C19.0115512,27.9999509 19.0057813,28 19,28 C18.4871642,28 18.0644928,27.6139598 18.0067277,27.1166211 L18.0017853,27.0602528 C18.0006007,27.0403201 18,27.0202302 18,27 L18,26.982 L18,19.1428571 C18,17.9492519 17.0938959,17 16,17 C14.9536648,17 14.0791467,17.8685027 14.0050795,18.9886132 L14,19.1428571 L14,27 C14,27.5522847 13.5522847,28 13,28 L12.983,27.999 L8.58493687,27.9990584 C6.55797962,27.9804872 6.03432649,27.6766637 6.00166846,26.16137 L6.00006152,23.011208 C6.00002054,23.0074769 6,23.0037408 6,23 L6.001,22.989 L6,12.0038387 C6,11.9265406 6.00106093,11.8521384 6.00329637,11.7805282 C5.29201828,11.4954099 4.76146109,10.944855 4.42412376,10.2155329 C4.12347994,9.56554214 4.01252985,8.89085136 4.00059162,8.25241554 L4.00059162,8.25241554 L4.00277199,8.08789797 C4.04472765,7.43372262 4.49984497,7.11374925 5.06966189,7.03990364 C5.25845943,7.01543636 5.50652541,7.00599684 5.9980873,7.00230792 L6,6 L5,6 C4.44771525,6 4,5.55228475 4,5 C4,4.48716416 4.38604019,4.06449284 4.88337887,4.00672773 L5,4 L26.9955005,4 Z M12,24 L7.999,24 L8,25.994 L8.80002617,26 L12,25.999 L12,24 Z M23.998,24 L20,24 L20,25.998 L23.9253945,25.9960575 L24,25.994 L23.998,24 Z M12,20 L7.999,20 L7.999,22 L12,22 L12,20 Z M23.997,20 L20,20 L20,22 L23.998,22 L23.997,20 Z M23.5083124,12.0009735 L8.07500602,12.0039569 L8,12.005 L7.999,18 L12.1543574,17.9999299 C12.6322349,16.2728978 14.1660878,15 16,15 C17.8339122,15 19.3677651,16.2728978 19.8456426,17.9999299 L23.996,18 L23.995,12.005 L23.5083124,12.0009735 Z M11,14 C11.5522847,14 12,14.4477153 12,15 C12,15.5128358 11.6139598,15.9355072 11.1166211,15.9932723 L11,16 L10,16 C9.44771525,16 9,15.5522847 9,15 C9,14.4871642 9.38604019,14.0644928 9.88337887,14.0067277 L10,14 L11,14 Z M22,14 C22.5522847,14 23,14.4477153 23,15 C23,15.5128358 22.6139598,15.9355072 22.1166211,15.9932723 L22,16 L21,16 C20.4477153,16 20,15.5522847 20,15 C20,14.4871642 20.3860402,14.0644928 20.8833789,14.0067277 L21,14 L22,14 Z M25.888,9.001 L6.108,9.001 L6.15294257,9.15779613 L6.23935328,9.37592482 C6.43668274,9.80255036 6.70494545,10 7.20003277,10 L7.20003277,10 L24.8002949,10 C25.3373727,10 25.6190802,9.76111005 25.8128094,9.24020852 C25.839721,9.16784823 25.8628075,9.09710525 25.8825941,9.02712676 L25.8825941,9.02712676 L25.888,9.001 Z M24,6 L7.999,6 L8,7 L24,7 L24,6 Z" id="Combined-Shape" fill="#FFC000" fill-rule="nonzero"></path>
    </g>
</svg>