<?xml version="1.0" encoding="UTF-8"?>
<svg width="32px" height="32px" viewBox="0 0 32 32" version="1.1" xmlns="http://www.w3.org/2000/svg" xmlns:xlink="http://www.w3.org/1999/xlink">
    <!-- Generator: Sketch 64 (93537) - https://sketch.com -->
    <title>art-colour</title>
    <desc>Created with Sketch.</desc>
    <g id="art-colour" stroke="none" stroke-width="1" fill="none" fill-rule="evenodd">
        <g id="Group-2">
            <rect id="Rectangle" x="0" y="0" width="32" height="32"></rect>
        </g>
        <path d="M23,14 C23.5128358,14 23.9355072,14.3860402 23.9932723,14.8833789 L24,15 C24,15.5128358 24.3860402,15.9355072 24.8833789,15.9932723 L25,16 C27.4442442,16 29,17.938287 29,20.5 C29,21.3426227 28.7689646,21.9647647 28.2250484,22.8991435 L27.8618144,23.5072237 L27.8540312,23.5202284 C27.8508235,23.5254901 27.8475615,23.5307333 27.8442449,23.5359576 C25.3038467,27.5376143 20.8682179,30 16,30 C14.1425445,30 12.3111751,29.6275905 10.6163436,28.9234759 C10.106322,28.7115884 9.86463651,28.1263653 10.0765241,27.6163436 C10.2884116,27.106322 10.8736347,26.8646365 11.3836564,27.0765241 C12.8375897,27.680558 14.4084852,28 16,28 C20.1804493,28 23.9805733,25.8904071 26.1557551,22.4640424 L26.3694755,22.107304 C26.8375914,21.3304594 27,20.9386825 27,20.5 C27,18.9580759 26.2310055,18 25,18 C23.3431458,18 22,16.6568542 22,15 C22,14.4477153 22.4477153,14 23,14 Z M25.046907,5.20399146 L25.1590564,5.3099799 L26.7082883,6.85921183 C26.7382875,6.88983779 26.7631323,6.91566285 26.7851119,6.93938845 L26.8162188,6.97373993 L26.901032,7.07805038 C27.0707002,7.30194033 27.1745477,7.55656241 27.1636924,7.86880665 C27.1522955,8.19662995 27.0749576,8.39040092 26.8714136,8.63788687 L26.7762779,8.74778838 L26.5657124,8.96962181 L13.9636349,21.5716994 C13.5615187,21.9655822 13.3638146,22.1196894 12.9833119,22.1563431 C12.9943322,22.2688187 13,22.3837475 13,22.5 C13,24.3685634 11.5357224,25.8951264 9.6920352,25.9948211 L9.5,26 L5,26 C4.44771525,26 4,25.5522847 4,25 C4,24.4871642 4.38604019,24.0644928 4.88337887,24.0067277 L5,24 C5.51283584,24 5.93550716,23.6139598 5.99327227,23.1166211 L6,23 L6,22.5 C6,20.5670034 7.56700338,19 9.5,19 C9.61727528,19 9.73320339,19.0057679 9.84751611,19.0170356 C9.85314033,18.9680174 9.86318231,18.9179525 9.87663968,18.8674873 C9.95285385,18.5816842 10.0006349,18.4818225 10.2936989,18.1759002 L10.4008469,18.0657565 L22.839584,5.6258387 C23.7321933,4.73322935 24.2733675,4.50629783 25.046907,5.20399146 Z M20,19 C21.6568542,19 23,20.3431458 23,22 C23,23.6568542 21.6568542,25 20,25 C18.3431458,25 17,23.6568542 17,22 C17,20.3431458 18.3431458,19 20,19 Z M9.5,21 C8.72030388,21 8.07955132,21.5948881 8.00686658,22.35554 L8,22.5 L8,23 C8,23.350972 7.93973023,23.6878673 7.82897577,24.0009007 L9.5,24 C10.3284271,24 11,23.3284271 11,22.5 C11,21.6715729 10.3284271,21 9.5,21 Z M20,21 C19.4477153,21 19,21.4477153 19,22 C19,22.5522847 19.4477153,23 20,23 C20.5522847,23 21,22.5522847 21,22 C21,21.4477153 20.5522847,21 20,21 Z M16,2 C17.8729207,2 19.6894671,2.36842724 21.3855387,3.077116 C21.8951272,3.29004314 22.1356188,3.87575783 21.9226917,4.38534637 C21.7097645,4.8949349 21.1240498,5.13542648 20.6144613,4.92249934 C19.1612807,4.31530044 17.6066783,4 16,4 C9.372583,4 4,9.372583 4,16 C4,17.6094425 4.31462909,19.1560053 4.92441009,20.6141987 C5.13748226,21.1237266 4.89715739,21.7095097 4.38762948,21.9225819 C3.87810156,22.1356541 3.29231845,21.8953292 3.07924629,21.3858013 C2.36794836,19.6848464 2,17.8761921 2,16 C2,8.2680135 8.2680135,2 16,2 Z M13.9394779,17.3545317 L12.1365586,19.1572912 L12.8436654,19.864398 L14.6464779,18.0615317 L13.9394779,17.3545317 Z M8,12 C9.65685425,12 11,13.3431458 11,15 C11,16.6568542 9.65685425,18 8,18 C6.34314575,18 5,16.6568542 5,15 C5,13.3431458 6.34314575,12 8,12 Z M24.1566668,7.13718302 L15.3534779,15.9405317 L16.0604779,16.6475317 L24.8644807,7.8435827 L24.1566668,7.13718302 Z M8,14 C7.44771525,14 7,14.4477153 7,15 C7,15.5522847 7.44771525,16 8,16 C8.55228475,16 9,15.5522847 9,15 C9,14.4477153 8.55228475,14 8,14 Z M15,5 C16.6568542,5 18,6.34314575 18,8 C18,9.65685425 16.6568542,11 15,11 C13.3431458,11 12,9.65685425 12,8 C12,6.34314575 13.3431458,5 15,5 Z M15,7 C14.4477153,7 14,7.44771525 14,8 C14,8.55228475 14.4477153,9 15,9 C15.5522847,9 16,8.55228475 16,8 C16,7.44771525 15.5522847,7 15,7 Z" id="Combined-Shape" fill="#F18100" fill-rule="nonzero"></path>
    </g>
</svg>