<?xml version="1.0" encoding="UTF-8"?>
<svg width="32px" height="32px" viewBox="0 0 32 32" version="1.1" xmlns="http://www.w3.org/2000/svg" xmlns:xlink="http://www.w3.org/1999/xlink">
    <!-- Generator: Sketch 64 (93537) - https://sketch.com -->
    <title>biological-sciences-colour</title>
    <desc>Created with Sketch.</desc>
    <g id="biological-sciences-colour" stroke="none" stroke-width="1" fill="none" fill-rule="evenodd">
        <g id="Group-2">
            <rect id="Rectangle" x="0" y="0" width="32" height="32"></rect>
        </g>
        <path d="M8,4 C8.51283584,4 8.93550716,4.38604019 8.99327227,4.88337887 L9,5 L9,8 C9,11.7854517 12.0047834,14.8690987 15.7593502,14.995941 L16,15 L16,15 C20.8818027,15 24.8557914,18.8868137 24.9961629,23.7346377 L25,24 L25,27 C25,27.5522847 24.5522847,28 24,28 C23.4871642,28 23.0644928,27.6139598 23.0067277,27.1166211 L23,27 L23,24 C23,20.1340068 19.8659932,17 16,17 C11.1181973,17 7.14420858,13.1131863 7.00383711,8.26536225 L7,8 L7,5 C7,4.44771525 7.44771525,4 8,4 Z M11.4483712,17.3371795 C11.8144369,17.7507183 11.7759522,18.3827127 11.3624134,18.7487783 C9.94235836,20.0058147 9.08438107,21.7862052 9.00588902,23.7103479 L8.99998853,24 L8.99998853,27 C8.99998853,27.5522847 8.55227328,28 7.99998853,28 C7.48715269,28 7.06448137,27.6139598 7.00671626,27.1166211 L6.99998853,27 L6.99998853,24 C6.99998853,21.387281 8.12090217,18.947155 10.0367724,17.2512217 C10.4503112,16.885156 11.0823055,16.9236406 11.4483712,17.3371795 Z M20,24 C20.5522847,24 21,24.4477153 21,25 C21,25.5128358 20.6139598,25.9355072 20.1166211,25.9932723 L20,26 L12,26 C11.4477153,26 11,25.5522847 11,25 C11,24.4871642 11.3860402,24.0644928 11.8833789,24.0067277 L12,24 L20,24 Z M18,20 C18.5522847,20 19,20.4477153 19,21 C19,21.5128358 18.6139598,21.9355072 18.1166211,21.9932723 L18,22 L14,22 C13.4477153,22 13,21.5522847 13,21 C13,20.4871642 13.3860402,20.0644928 13.8833789,20.0067277 L14,20 L18,20 Z M24,3.99998763 C24.5128358,3.99998763 24.9355072,4.38602783 24.9932723,4.88336651 L25,4.99998763 L25,7.99998763 C25,10.618792 23.8738844,13.0577996 21.9471457,14.7552262 C21.5327405,15.1203107 20.9008391,15.0803284 20.5357546,14.6659231 C20.17067,14.2515179 20.2106524,13.6196165 20.6250576,13.254532 C22.0538123,11.9958215 22.9152722,10.2174384 22.9940762,8.29015115 L23,7.99998763 L23,4.99998763 C23,4.44770289 23.4477153,3.99998763 24,3.99998763 Z M18,10 C18.5522847,10 19,10.4477153 19,11 C19,11.5128358 18.6139598,11.9355072 18.1166211,11.9932723 L18,12 L14,12 C13.4477153,12 13,11.5522847 13,11 C13,10.4871642 13.3860402,10.0644928 13.8833789,10.0067277 L14,10 L18,10 Z M20,6 C20.5522847,6 21,6.44771525 21,7 C21,7.51283584 20.6139598,7.93550716 20.1166211,7.99327227 L20,8 L12,8 C11.4477153,8 11,7.55228475 11,7 C11,6.48716416 11.3860402,6.06449284 11.8833789,6.00672773 L12,6 L20,6 Z" id="Combined-Shape" fill="#1950EC" fill-rule="nonzero"></path>
    </g>
</svg>