<?xml version="1.0" encoding="UTF-8"?>
<svg width="32px" height="32px" viewBox="0 0 32 32" version="1.1" xmlns="http://www.w3.org/2000/svg" xmlns:xlink="http://www.w3.org/1999/xlink">
    <!-- Generator: Sketch 64 (93537) - https://sketch.com -->
    <title>business-colour</title>
    <desc>Created with Sketch.</desc>
    <g id="business-colour" stroke="none" stroke-width="1" fill="none" fill-rule="evenodd">
        <g id="Group-2">
            <rect id="Rectangle" x="0" y="0" width="32" height="32"></rect>
        </g>
        <path d="M20,4 C20.5128358,4 20.9355072,4.38604019 20.9932723,4.88337887 L21,5 L21,6 L22.6292085,6.00079828 C22.9522229,6.00452704 23.115888,6.01790308 23.3160318,6.10960755 L23.4200502,6.16230513 C23.8815936,6.41607586 23.9942423,6.76350206 23.9986304,7.1906602 L23.9986304,7.1906602 L23.999,10 L24.2504265,10.0007542 C25.4165071,10.0124386 25.9365505,10.473713 25.9925183,11.5755144 L25.9974556,11.7456124 L25.998,26 L27,26 C27.5522847,26 28,26.4477153 28,27 C28,27.5128358 27.6139598,27.9355072 27.1166211,27.9932723 L27,28 L5,28 C4.44771525,28 4,27.5522847 4,27 C4,26.4871642 4.38604019,26.0644928 4.88337887,26.0067277 L5,26 L6,26 L6.0002485,15.3859165 C6.00101405,15.25329 6.00392799,15.1905129 6.01392877,15.100506 C6.0447489,14.8231248 6.13311048,14.577676 6.35539322,14.3553932 C6.57767596,14.1331105 6.8231248,14.0447489 7.10050597,14.0139288 L7.22722894,14.0036254 C7.25987153,14.0020697 7.2955108,14.0011634 7.33926618,14.0006459 L12,14 C12.5522847,14 13,14.4477153 13,15 C13,15.5128358 12.6139598,15.9355072 12.1166211,15.9932723 L12,16 L8,16 L8,26 L14,26 L14.0007513,11.7442375 C14.0123963,10.5800346 14.4726517,10.0631376 15.5802987,10.0059137 L15.751326,10.0007542 L16,10 L16,7.25095969 C16,6.44492174 16.4573013,6.05747077 17.2294212,6.00638795 L17.3778482,6.00073166 L19,6 L19,5 C19,4.44771525 19.4477153,4 20,4 Z M23.997,12 L16,12 L16,26 L24,26.00042 L23.997,12 Z M22,22 C22.5522847,22 23,22.4477153 23,23 C23,23.5128358 22.6139598,23.9355072 22.1166211,23.9932723 L22,24 L18,24 C17.4477153,24 17,23.5522847 17,23 C17,22.4871642 17.3860402,22.0644928 17.8833789,22.0067277 L18,22 L22,22 Z M12,22 C12.5522847,22 13,22.4477153 13,23 C13,23.5128358 12.6139598,23.9355072 12.1166211,23.9932723 L12,24 L10,24 C9.44771525,24 9,23.5522847 9,23 C9,22.4871642 9.38604019,22.0644928 9.88337887,22.0067277 L10,22 L12,22 Z M22,18 C22.5522847,18 23,18.4477153 23,19 C23,19.5128358 22.6139598,19.9355072 22.1166211,19.9932723 L22,20 L18,20 C17.4477153,20 17,19.5522847 17,19 C17,18.4871642 17.3860402,18.0644928 17.8833789,18.0067277 L18,18 L22,18 Z M12,18 C12.5522847,18 13,18.4477153 13,19 C13,19.5128358 12.6139598,19.9355072 12.1166211,19.9932723 L12,20 L10,20 C9.44771525,20 9,19.5522847 9,19 C9,18.4871642 9.38604019,18.0644928 9.88337887,18.0067277 L10,18 L12,18 Z M22,14 C22.5522847,14 23,14.4477153 23,15 C23,15.5128358 22.6139598,15.9355072 22.1166211,15.9932723 L22,16 L18,16 C17.4477153,16 17,15.5522847 17,15 C17,14.4871642 17.3860402,14.0644928 17.8833789,14.0067277 L18,14 L22,14 Z M19.983,7.999 L17.999,8 L18,10 L21.999,10 L21.998,8 L20.0173091,7.99985321 C20.0115512,7.99995094 20.0057813,8 20,8 L19.983,7.999 Z" id="Combined-Shape" fill="#F53B14" fill-rule="nonzero"></path>
    </g>
</svg>