<?xml version="1.0" encoding="UTF-8"?>
<svg width="32px" height="32px" viewBox="0 0 32 32" version="1.1" xmlns="http://www.w3.org/2000/svg" xmlns:xlink="http://www.w3.org/1999/xlink">
    <!-- Generator: Sketch 64 (93537) - https://sketch.com -->
    <title>computer-science-colour</title>
    <desc>Created with Sketch.</desc>
    <g id="computer-science-colour" stroke="none" stroke-width="1" fill="none" fill-rule="evenodd">
        <g id="Group-2">
            <rect id="Rectangle" x="0" y="0" width="32" height="32"></rect>
        </g>
        <path d="M26.6771738,6.00086661 C26.7150106,6.00148358 26.7468503,6.0024259 26.7763664,6.00392647 L26.7763664,6.00392647 L26.9059037,6.01512145 C27.1899122,6.04853421 27.4429937,6.14500294 27.6645132,6.37955294 C27.8761611,6.60365076 27.9578664,6.84396059 27.9867265,7.11898038 C27.9938508,7.18687021 27.9972044,7.24016968 27.9987474,7.32047361 L27.9987474,7.32047361 L27.99987,9.98370709 C27.9999565,9.98912769 28,9.99455877 28,10 L27.9981484,10.0151561 L28,24.4705882 C28,24.5716856 27.9997166,24.6419948 27.9983228,24.6990639 L27.9965283,24.7523694 L27.9867265,24.8810196 C27.9578664,25.1560394 27.8761611,25.3963492 27.6645132,25.6204471 C27.4429937,25.8549971 27.1899122,25.9514658 26.9059037,25.9848785 C26.8365788,25.9930344 26.7833869,25.996847 26.7044843,25.9985921 L26.7044843,25.9985921 L5.50097909,26 C5.38052191,26 5.30813209,25.9995538 5.24689145,25.9969844 L5.24689145,25.9969844 L5.12833701,25.988518 C4.8798675,25.9641966 4.66178144,25.8973759 4.44701181,25.7236106 C4.04321832,25.3969104 4.00301444,25.1655998 4.00014844,24.5695773 L4.00014844,24.5695773 L4.00098076,7.33506596 C4.00137996,7.31039303 4.00193316,7.28844494 4.00269459,7.26785795 L4.00269459,7.26785795 L4.01019543,7.14975958 C4.03127856,6.90998818 4.08807836,6.70362125 4.24189591,6.49198383 C4.43370962,6.22806752 4.69431229,6.08800386 4.98153732,6.0324299 C5.1136063,6.00687642 5.22176296,6.00113461 5.40651112,6.00015606 L5.40651112,6.00015606 Z M25.9991484,10.9991561 L5.99814844,10.9991561 L6,24 L26,24 L25.9991484,10.9991561 Z M19.6663793,13.2543871 C20.3650874,13.878846 21.0399183,14.5072575 21.6908634,15.1396335 L22.4782609,15.9187855 C22.5764944,16.0190655 22.6272325,16.0755859 22.6888583,16.1526182 C22.8821629,16.3942489 23.0017395,16.6483492 23.0017395,16.9804382 C23.0017395,17.3125273 22.8821629,17.5666275 22.6888583,17.8082583 L22.5770798,17.9386462 C22.5353327,17.9839796 22.4848944,18.0358115 22.4131542,18.1080243 L22.3338463,18.187545 C21.4908302,19.0305611 20.6055196,19.8797488 19.6779125,20.7351426 C19.2719045,21.1095433 18.6392581,21.0839206 18.2648574,20.6779125 C17.8904567,20.2719045 17.9160794,19.6392581 18.3220875,19.2648574 C19.0031217,18.636841 19.6604203,18.0126693 20.2939826,17.3923569 L20.709,16.98 L20.2967731,16.5736882 C19.8762799,16.1651991 19.4452794,15.7582084 19.003769,15.3527195 L18.3336207,14.7456129 C17.9218301,14.3775818 17.8863559,13.7454114 18.2543871,13.3336207 C18.6224182,12.9218301 19.2545886,12.8863559 19.6663793,13.2543871 Z M13.7368723,13.3220828 C14.1112731,13.7280909 14.0856503,14.3607372 13.6796422,14.7351379 C12.9986081,15.3631543 12.3413094,15.987326 11.7077471,16.6076385 L11.2927297,17.0199954 L11.7049566,17.4263072 C12.1254498,17.8347962 12.5564503,18.2417869 12.9979607,18.6472759 L13.668109,19.2543824 C14.0798997,19.6224135 14.1153738,20.254584 13.7473427,20.6663746 C13.3793116,21.0781653 12.7471411,21.1136394 12.3353505,20.7456083 C11.6366423,20.1211494 10.9618114,19.4927378 10.3108663,18.8603618 L9.52346888,18.0812099 C9.42523534,17.9809298 9.37449722,17.9244094 9.31287143,17.8473772 C9.11956684,17.6057464 8.99999024,17.3516462 8.99999024,17.0195571 C8.99999024,16.6874681 9.11956684,16.4333678 9.31287143,16.1917371 L9.42464992,16.0613492 C9.46639702,16.0160157 9.5168353,15.9641839 9.58857553,15.891971 L9.66788346,15.8124503 C10.5108995,14.9694343 11.3962101,14.1202466 12.3238172,13.2648528 C12.7298253,12.890452 13.3624716,12.9160748 13.7368723,13.3220828 Z M26,7.999 L5.999,8 L5.99814844,8.99915606 L25.9991484,8.99915606 L26,7.999 Z" id="Combined-Shape" fill="#00A4E1" fill-rule="nonzero"></path>
    </g>
</svg>