<?xml version="1.0" encoding="UTF-8"?>
<svg width="32px" height="32px" viewBox="0 0 32 32" version="1.1" xmlns="http://www.w3.org/2000/svg" xmlns:xlink="http://www.w3.org/1999/xlink">
    <!-- Generator: Sketch 64 (93537) - https://sketch.com -->
    <title>design-colour</title>
    <desc>Created with Sketch.</desc>
    <g id="design-colour" stroke="none" stroke-width="1" fill="none" fill-rule="evenodd">
        <g id="Group-2">
            <rect id="Rectangle" x="0" y="0" width="32" height="32"></rect>
        </g>
        <path d="M24.8083126,4.33251264 C24.8900269,4.38813254 24.9555017,4.44252855 25.0374528,4.51994222 L25.1261077,4.60592629 L27.4478143,6.92878247 L27.4712723,6.95327896 L27.4712723,6.95327896 L27.4925041,6.97594249 L27.5686623,7.06294484 C27.7224902,7.247736 27.8277406,7.43711533 27.8648844,7.69883451 C27.9100347,8.0169681 27.8234117,8.29325275 27.6618424,8.53058322 C27.6062305,8.61227207 27.5518424,8.67773185 27.4744248,8.75968402 L27.3884325,8.84834556 L25.1729275,11.0657097 C25.156558,11.0847322 25.1393556,11.103285 25.1213203,11.1213203 L25.0645279,11.1710935 L10.7010678,25.5360967 L10.3475144,25.8895212 C10.0944006,26.142635 9.32290483,26.5522286 8.39240015,26.9678619 L8.17500924,27.063816 L7.49215325,27.3521948 C5.65940396,28.107718 4.95836806,28.2785494 4.33710678,27.6572882 C3.76916695,27.0893483 3.86334177,26.4559891 4.46214014,24.9479716 L4.55109857,24.726503 L4.83521481,24.0418543 C5.2810659,22.9955277 5.74625168,22.0704797 6.04375723,21.714328 L6.10487373,21.6468805 L23.179394,4.57306277 L23.2189901,4.53464472 L23.2189901,4.53464472 L23.2536339,4.50199666 L23.340645,4.42582581 C23.5254151,4.27200333 23.7147436,4.16675327 23.9764064,4.12956263 C24.2945696,4.08434146 24.5709296,4.17093483 24.8083126,4.33251264 Z M21.9585791,16.298781 L27.397978,21.7502064 C27.4769301,21.8299843 27.5130409,21.86925 27.5624842,21.9295957 C27.7230911,22.1256169 27.829782,22.3335288 27.8460605,22.6236058 C27.863916,22.9417865 27.7589225,23.1884162 27.5906268,23.4044991 C27.5564889,23.4483305 27.5293829,23.4804823 27.4923784,23.5200853 L27.361164,23.6539732 L23.5335903,27.4797465 C23.5022075,27.5096218 23.4763945,27.5327128 23.4480814,27.5561679 L23.4027278,27.5925172 C23.1870496,27.7607351 22.9413313,27.8659038 22.6236372,27.8489634 C22.3326625,27.8334477 22.123739,27.7266698 21.9271108,27.565747 L21.8444859,27.494435 C21.8136761,27.4661823 21.7798064,27.4332623 21.7318876,27.3856585 L19.5362388,25.1899684 C19.5323783,25.1862283 19.5285405,25.1824509 19.5247258,25.1786362 L19.5141892,25.1652712 L17.4265676,23.0797566 C17.4187567,23.0724254 17.4110348,23.0649452 17.4034055,23.0573159 L17.3822623,23.03193 L16.2965587,21.9472587 C15.9062893,21.5564797 15.9067024,20.9233149 16.2974809,20.533045 C16.6882604,20.142776 17.3214252,20.1431891 17.7116946,20.5339681 L18.1119965,20.9332371 L19.5247258,19.521782 C19.9152501,19.1312577 20.5484151,19.1312577 20.9389394,19.521782 C21.3015691,19.8844117 21.3274712,20.4562571 21.0166458,20.8487747 L20.9389394,20.9359955 L19.5255029,22.3481578 L20.2326097,23.0552646 L21.6460462,21.6431023 C22.0365705,21.252578 22.6697355,21.252578 23.0602598,21.6431023 C23.4228895,22.005732 23.4487916,22.5775774 23.1379661,22.9700951 L23.0602598,23.0573159 L21.6468233,24.4694781 L22.6813205,25.5053895 L25.5033837,22.6833264 L21.4676195,18.6375518 L20.5443655,17.7129945 C20.1538412,17.3224702 20.1538412,16.6893053 20.5443655,16.298781 C20.9348898,15.9082567 21.5680548,15.9082567 21.9585791,16.298781 Z M7.27604831,23.524299 C7.20308773,23.6725463 7.11871831,23.8479937 7.02982356,24.0381178 L6.93967531,24.2326701 L6.6543439,24.8754468 L6.49342678,25.2631112 L6.40668179,25.4815863 L6.34175451,25.6540546 L6.73160539,25.5014856 L7.1191626,25.3405408 C7.61129833,25.1303212 8.11820969,24.8918802 8.47088271,24.7181706 L7.27604831,23.524299 Z M21.5827341,8.9974473 L8.57904036,22.001141 L9.99325392,23.4153546 L22.9969476,10.4116609 L21.5827341,8.9974473 Z M9.29668114,4.07722641 C9.58765584,4.09274206 9.79657933,4.19952004 9.99320761,4.36044276 L10.0758325,4.4317548 C10.0940901,4.44849713 10.1134223,4.46687847 10.1361159,4.48898322 L15.7067698,10.0584395 C16.0974451,10.4488127 16.0976901,11.0819776 15.7073169,11.472653 C15.3448275,11.835423 14.7729922,11.8615463 14.3803543,11.5508728 L14.2931034,11.4732002 L9.23992771,6.41987042 L6.41786454,9.24193358 L7.50610188,10.3259283 L8.91812413,8.91518026 C9.30864842,8.52465596 9.9418134,8.52465596 10.3323377,8.91518026 C10.6949674,9.27780996 10.7208695,9.84965535 10.4100441,10.242173 L10.3323377,10.3293938 L8.92243676,11.7380205 L9.63095776,12.4437131 L11.0394445,11.0365006 C11.4299688,10.6459763 12.0631337,10.6459763 12.453658,11.0365006 C12.8162877,11.3991303 12.8421899,11.9709757 12.5313644,12.3634933 L12.453658,12.4507142 L11.0472926,13.8558053 L11.4854137,14.2930563 C11.8758547,14.6836638 11.8757198,15.3168288 11.4851123,15.7072699 C11.0945048,16.0977109 10.4613398,16.097576 10.0708987,15.7069684 L9.02391217,14.6640929 C8.98706183,14.6362929 8.95169638,14.6056068 8.91812413,14.5720345 C8.88504559,14.538956 8.85476889,14.5041366 8.82729405,14.4678712 L6.8856288,12.5296882 C6.85486256,12.5054271 6.82519209,12.4791025 6.79680379,12.4507142 L6.71909742,12.3634933 L4.42881909,10.0787682 C4.40370559,10.0513816 4.38227987,10.0264127 4.35750705,9.99614332 C4.19658432,9.79951505 4.08980635,9.59059155 4.0742907,9.29961685 C4.05735029,8.98192281 4.16251902,8.73620447 4.33073685,8.5205263 C4.36487861,8.47675191 4.39201897,8.44459551 4.42910222,8.4049284 L4.56063466,8.27073634 L8.38672809,4.44644332 C8.43380223,4.40163038 8.4683444,4.37208205 8.51759059,4.33367256 C8.73326875,4.16545473 8.97898709,4.060286 9.29668114,4.07722641 Z M24.1353895,6.44479182 L22.9969476,7.58323374 L24.4111612,8.9974473 L25.5503102,7.85829828 L24.1353895,6.44479182 Z" id="Combined-Shape" fill="#FF7500" fill-rule="nonzero"></path>
    </g>
</svg>