<?xml version="1.0" encoding="UTF-8"?>
<svg width="32px" height="32px" viewBox="0 0 32 32" version="1.1" xmlns="http://www.w3.org/2000/svg" xmlns:xlink="http://www.w3.org/1999/xlink">
    <!-- Generator: Sketch 64 (93537) - https://sketch.com -->
    <title>economics-colour</title>
    <desc>Created with Sketch.</desc>
    <g id="economics-colour" stroke="none" stroke-width="1" fill="none" fill-rule="evenodd">
        <g id="Group-2">
            <rect id="Rectangle" x="0" y="0" width="32" height="32"></rect>
        </g>
        <path d="M6.40027655,19.0001594 L9.69662248,19.0010894 C9.72180143,19.0015364 9.74414878,19.0021581 9.76511079,19.0030175 L9.76511079,19.0030175 L9.88582847,19.0115288 C10.1476749,19.0369861 10.374753,19.1085157 10.5960046,19.3021108 C10.8423771,19.5176867 10.9481935,19.7748794 10.9842212,20.0585978 C10.9927838,20.1260276 10.9967516,20.176274 10.9985559,20.2492859 L10.9985559,20.2492859 L11,26.5625 C11,26.6836207 10.9994572,26.7553434 10.9959404,26.8176171 L10.9959404,26.8176171 L10.9842212,26.9414022 C10.9481935,27.2251206 10.8423771,27.4823133 10.5960046,27.6978892 C10.374753,27.8914843 10.1476749,27.9630139 9.88582847,27.9884712 C9.82221189,27.9946562 9.77215931,27.9975695 9.69662248,27.9989106 L9.69662248,27.9989106 L6.31802049,27.9991619 L6.14499258,27.9913095 C5.92051688,27.9732594 5.72888133,27.9251402 5.52515576,27.7905203 C5.25296303,27.610658 5.0985415,27.3508225 5.0364501,27.0633328 C5.00771373,26.9302804 5.00133719,26.8249415 5.00018123,26.6497422 L5.00018123,26.6497422 L5.00160453,20.2453527 L5.01166662,20.0941776 C5.03736342,19.8481763 5.10916997,19.6280415 5.2912607,19.4159166 C5.49170748,19.1824079 5.73656456,19.0703895 6.00488379,19.0257798 C6.12504778,19.0058019 6.22718611,19.0010425 6.40027655,19.0001594 L6.40027655,19.0001594 Z M17.6795854,17.0009768 C17.7179727,17.0016121 17.7503251,17.0026388 17.7804034,17.0042765 L17.7804034,17.0042765 L17.9130972,17.0165112 C18.204106,17.0528873 18.4649982,17.1585486 18.6849093,17.4059487 C18.8852267,17.6313057 18.9604041,17.8662351 18.9873456,18.1390175 C18.9948663,18.2151646 18.9979836,18.2741941 18.9992261,18.374288 L18.9992261,18.374288 L18.9992261,26.625712 C18.9986049,26.675759 18.9975149,26.7155398 18.9956402,26.7523273 L18.9956402,26.7523273 L18.9873456,26.8609825 C18.9604041,27.1337649 18.8852267,27.3686943 18.6849093,27.5940513 C18.4649982,27.8414514 18.204106,27.9471127 17.9130972,27.9834888 C17.8417335,27.9924093 17.7874141,27.9965692 17.7073031,27.9984699 L17.7073031,27.9984699 L14.4973001,28 C14.2950135,28 14.2273087,27.9986641 14.1198967,27.9874104 C13.864029,27.9606027 13.6372699,27.8862361 13.4207977,27.6987702 C13.0384032,27.3676149 13.0028712,27.1488001 13.0001473,26.5426851 L13.0001473,26.5426851 L13.001943,18.2579248 C13.0095565,17.8819096 13.0465527,17.783598 13.2241019,17.5227093 C13.5387161,17.060419 13.8139267,17.0035516 14.4064646,17.0001667 L14.4064646,17.0001667 Z M25.6094081,13.0001654 C25.7722788,13.0015165 25.8467052,13.0069336 25.966745,13.0286075 C26.2991067,13.0886172 26.5947663,13.2615781 26.7891583,13.5774651 C26.9656046,13.8641902 26.9944756,13.9587436 26.9991236,14.5010635 L26.9991236,14.5010635 L26.9991236,26.4989365 C26.9952503,26.9508697 26.9745554,27.091854 26.8656546,27.292224 L26.8656546,27.292224 L26.7891583,27.4225349 C26.5947663,27.7384219 26.2991067,27.9113828 25.966745,27.9713925 C25.8707132,27.9887316 25.8038739,27.9956664 25.6975897,27.9983629 L25.6975897,27.9983629 L22.4973001,28 C22.3750918,28 22.3009617,27.9993661 22.2357682,27.9955293 L22.2357682,27.9955293 L22.1056991,27.9828241 C21.8341163,27.9472824 21.5870604,27.8485767 21.3732923,27.6308944 C21.0464473,27.2980648 21.0074106,27.0539199 21.0008098,26.4418503 L21.0008098,26.4418503 L21.000874,14.5472098 C21.0067189,14.0129474 21.0385249,13.7869871 21.2852474,13.4702077 C21.6027016,13.0626121 21.8832316,13.0035325 22.4167996,13.0001654 L22.4167996,13.0001654 Z M9,20.999 L6.999,21 L7,26 L9,26 L9,20.999 Z M17,18.999 L14.999,19 L15,26 L17,26 L17,18.999 Z M25,14.999 L23,15 L23,26 L25,26 L25,14.999 Z M26.6140835,4.0002485 L26.7727711,4.00362542 C26.8033735,4.0050839 26.8313421,4.00711309 26.8608952,4.00992759 C27.1365913,3.97117321 27.4265745,4.04710816 27.6535897,4.24315092 C27.9196122,4.47287915 28.0350569,4.81217226 27.99079,5.13627141 L27.9963746,5.22722894 L28,5.5 L28,9 C28,9.55228475 27.5522847,10 27,10 C26.4871642,10 26.0644928,9.61395981 26.0067277,9.11662113 L26,9 L26.0001668,7.5190105 C20.4729226,12.9034867 12.9884682,16 5,16 C4.44771525,16 4,15.5522847 4,15 C4,14.4477153 4.44771525,14 5,14 C12.5051547,14 19.5275417,11.0770887 24.6931108,5.99977879 L23.000654,6 C22.4878182,6 22.0651468,5.61395981 22.0073817,5.11662113 L22.000654,5 C22.000654,4.48716416 22.3866942,4.06449284 22.8840329,4.00672773 L23.000654,4 L26.6140835,4.0002485 Z" id="Combined-Shape" fill="#EA1076" fill-rule="nonzero"></path>
    </g>
</svg>