<?xml version="1.0" encoding="UTF-8"?>
<svg width="32px" height="32px" viewBox="0 0 32 32" version="1.1" xmlns="http://www.w3.org/2000/svg" xmlns:xlink="http://www.w3.org/1999/xlink">
    <!-- Generator: Sketch 64 (93537) - https://sketch.com -->
    <title>education-colour</title>
    <desc>Created with Sketch.</desc>
    <g id="education-colour" stroke="none" stroke-width="1" fill="none" fill-rule="evenodd">
        <g id="Group-2">
            <rect id="Rectangle" x="0" y="0" width="32" height="32"></rect>
        </g>
        <path d="M15.9910569,4.00481218 C16.3061427,4.00292747 16.4588688,4.04611709 16.9008592,4.24076751 L19.1807748,5.26655053 C21.3346335,6.23980689 23.5811145,7.26495306 25.8734505,8.3199645 L27.1971327,8.93083232 C27.2655282,8.96326329 27.3110374,8.98611944 27.3559459,9.01069658 L27.4014797,9.03626575 C27.5013236,9.09359857 27.5874159,9.15354876 27.6741492,9.23757416 C27.8676965,9.42507872 28.0032862,9.67489413 28.0032862,10.0019942 C28.0032862,10.3326153 27.8642668,10.5858095 27.6661876,10.7735151 C27.6068781,10.8297185 27.5480218,10.8748441 27.4852167,10.9153624 L27.3874972,10.973493 C27.3241873,11.0085081 27.2733973,11.03381 27.1818202,11.0753003 L25.5384524,11.7941709 L24.9992862,12.038754 L25.0002086,16.9902411 C25.0005726,17.0627955 24.9930053,17.1348403 24.9779332,17.205107 C24.9551522,17.312686 24.9152022,17.4133577 24.8611373,17.504686 C24.8597958,17.5068808 24.8586353,17.5088331 24.8574679,17.5107818 C24.8472505,17.528144 24.8324326,17.5509856 24.8167343,17.5731599 C24.8068706,17.5873473 24.796328,17.6014953 24.7853945,17.615379 C24.7759182,17.6270546 24.76667,17.6382456 24.7571869,17.6492281 C24.7431508,17.665898 24.7280649,17.6822753 24.7123868,17.6981795 C24.7036005,17.7067195 24.6942612,17.7158467 24.6847467,17.7247897 C24.6669645,17.7418436 24.6482753,17.7581295 24.6288941,17.7737707 C24.6177624,17.7825467 24.6067219,17.7911068 24.5955009,17.7994375 C24.5777628,17.8126848 24.5594341,17.8253194 24.540584,17.8373976 C24.5068718,17.8591802 24.4710555,17.8792957 24.4339657,17.897189 L22.0022862,19.113754 L22.0028795,21.1717258 C23.1138075,21.5656676 23.9237478,22.5956101 23.9949073,23.8237901 L24,24.0000701 L23.9998003,26.6055891 C23.9987637,26.7807714 23.9930374,26.8882986 23.9684354,27.0177785 C23.914833,27.2998864 23.7806477,27.5565332 23.5236962,27.7495324 C23.3123749,27.9082581 23.1040764,27.9677105 22.8646553,27.9895938 C22.8443831,27.9914467 22.8255168,27.9929747 22.8067279,27.9942336 L22.8067279,27.9942336 L22.6842933,27.9990052 L19.3930108,27.9998002 C19.2180288,27.9987612 19.1105758,27.993019 18.9810165,27.9683168 C18.6987584,27.9145004 18.4419792,27.7797816 18.2493011,27.5223705 C18.0912473,27.311216 18.0321279,27.1033682 18.0103562,26.8643442 C18.0048248,26.8036159 18.0022028,26.7555023 18.0009903,26.6841852 L18.0009903,26.6841852 L18,24 C18,22.6926384 18.8362689,21.580598 20.0030588,21.1696264 L20.0022862,20.113754 L18.6787237,20.7768221 L18.2446631,20.9996738 L17.1653037,21.586672 L16.9538703,21.6963144 C16.4662279,21.9446977 16.3385184,21.996686 15.9979905,21.9960397 C15.6956158,21.9953941 15.5614454,21.9539807 15.1931601,21.7691072 L15.0432932,21.6928544 C12.5952891,20.4361115 10.104318,19.1715821 7.57038132,17.8992676 C7.53017207,17.8801426 7.49096977,17.8580977 7.45351069,17.8336079 L7.55129814,17.889686 C7.49573357,17.861788 7.44389942,17.8294137 7.39601354,17.7932203 C7.38767422,17.7867378 7.37949684,17.780328 7.37142321,17.7737951 C7.35126959,17.7577788 7.33170217,17.7406874 7.31291413,17.7229432 C7.30622692,17.7162601 7.29951387,17.7097319 7.29289322,17.7031113 L7.27605491,17.6862569 C7.26303175,17.6725971 7.25043563,17.6586049 7.23827376,17.6443022 C7.23022606,17.6344876 7.22217599,17.6246677 7.21431175,17.6146944 C7.19995335,17.5967577 7.18631601,17.578116 7.17336353,17.559063 C7.16562627,17.5475738 7.15809223,17.5360287 7.15079353,17.5243217 C7.14018704,17.5072578 7.13002553,17.4897273 7.12041275,17.4719239 C7.11135774,17.4554303 7.10300561,17.4389387 7.09510466,17.4221925 C7.08808163,17.4068353 7.08095225,17.3906028 7.07425856,17.3741989 C7.06692708,17.3569022 7.06048976,17.3398104 7.05451426,17.3225033 C7.04681097,17.2993936 7.03956211,17.2756141 7.03320107,17.2515886 C7.0302619,17.2413635 7.02768622,17.2309152 7.02527619,17.2204038 C7.00779886,17.1437362 6.99908675,17.0651151 6.99982559,16.9859277 L6.99987476,12.0211105 C6.83729762,11.9499442 6.67316375,11.8782251 6.50749666,11.8059639 L4.7808914,11.0551612 C4.72290804,11.0284797 4.68120409,11.0075092 4.63265103,10.981255 C4.52990335,10.9256962 4.44149924,10.8674735 4.35187307,10.7848802 C4.14777088,10.5967938 4.00328625,10.3418172 4.00328625,10.0029432 C4.00328625,9.66521275 4.14663746,9.41129901 4.34928539,9.22322757 C4.40857541,9.16820229 4.46737909,9.12389338 4.53026264,9.08390278 L4.62821863,9.02635588 C4.67662268,8.99986581 4.71824206,8.97866796 4.7761443,8.95164715 L6.73734857,8.08001506 C7.72423895,7.63626033 8.80848741,7.14013739 10.1953045,6.50005011 L14.6139913,4.46361657 L15.2326258,4.18466214 C15.5658115,4.04148436 15.7156471,4.00657564 15.9910569,4.00481218 Z M21,23 C20.4477153,23 20,23.4477153 20,24 L20,24 L19.999,25.999 L21.999,25.999 L22,24 C22,23.4871642 21.6139598,23.0644928 21.1166211,23.0067277 L21.1166211,23.0067277 Z M16.002,6.027 L15.9683441,6.04455959 L8.69749885,9.38808474 L7.356,9.994 L9.71034481,11.0306835 C12.1625601,12.1210217 14.1793874,13.0544956 15.6625312,13.7857076 L16.015,13.961 L17.8967554,13.0907131 C18.3982455,12.8593558 18.9923356,13.0783417 19.2236929,13.5798317 C19.4550501,14.0813218 19.2360642,14.6754119 18.7345742,14.9067692 L16.982853,15.7165976 C16.4656367,15.9561809 16.3352365,16.0048448 16.0043778,16.0048448 C15.7377112,16.0048448 15.5954566,15.9720184 15.3127901,15.8415592 L13.9430153,15.1735996 C12.6151766,14.5362915 10.9498802,13.7714594 9.00005983,12.9036831 L8.99928625,16.378754 L10.3499775,17.0595239 C11.6121003,17.6966852 12.8634343,18.3319012 14.1039799,18.9651722 L16.002,19.936 L16.3371959,19.7617065 L17.2659079,19.2549102 L17.5465545,19.108716 C18.198786,18.7768898 19.0173422,18.3643962 20.0023573,17.8711661 L20.003,12.929 L18.5869815,12.2960017 L17.0797138,11.6072837 L15.5735752,10.904523 C15.0740209,10.6690151 14.8599691,10.0731295 15.095477,9.5735752 C15.3309849,9.07402093 15.9268705,8.85996907 16.4264248,9.09547698 C17.4205249,9.56413166 18.4153281,10.023495 19.4108345,10.4735676 L21.2313977,11.2889555 C21.4203302,11.3781996 21.4833752,11.4236121 21.6046878,11.5313037 C21.7902308,11.696014 21.9163186,11.9073603 21.9708087,12.1489155 C21.9929909,12.2472496 22.0000677,12.3057383 22.0022197,12.3962087 L22.0003621,16.8736423 C22.3209662,16.7139688 22.6536781,16.5484225 22.9985005,16.3770022 L22.9992862,12.927754 L22.9979108,12.5974715 L22.9974389,11.9897997 C23.0010018,11.1741297 23.0783424,10.8556967 23.6419368,10.4898095 L23.753176,10.4221546 C23.7907369,10.4010716 23.8313353,10.3800578 23.8826403,10.3549155 L24.4988588,10.0686124 L24.696,9.979 L21.645501,8.5823871 C20.5302451,8.07354219 19.4323379,7.57492983 18.357634,7.08930658 L16.002,6.027 Z" id="Combined-Shape" fill="#CB0039" fill-rule="nonzero"></path>
    </g>
</svg>