<?xml version="1.0" encoding="UTF-8"?>
<svg width="32px" height="32px" viewBox="0 0 32 32" version="1.1" xmlns="http://www.w3.org/2000/svg" xmlns:xlink="http://www.w3.org/1999/xlink">
    <!-- Generator: Sketch 64 (93537) - https://sketch.com -->
    <title>history-colour</title>
    <desc>Created with Sketch.</desc>
    <g id="history-colour" stroke="none" stroke-width="1" fill="none" fill-rule="evenodd">
        <g id="Group-2">
            <rect id="Rectangle" x="0" y="0" width="32" height="32"></rect>
        </g>
        <path d="M9,28 C8.48716416,28 8.06449284,27.6139598 8.00672773,27.1166211 L8,27 L8.00029704,15.9725684 C5.7501788,15.7239814 4,13.8163788 4,11.5 C4,9.08572667 5.90123652,7.11551091 8.2881643,7.00489799 L8.5,7 L23.5,7 C25.9852814,7 28,9.01471863 28,11.5 C28,13.8160341 26.2503421,15.7234136 24.0007074,15.9724574 L24,27 L24,27 C24,27.5128358 23.6139598,27.9355072 23.1166211,27.9932723 L23,28 L23,28 L9,28 L9,28 Z M19.7581204,14.0005166 L12.2418796,14.0005166 C11.7069687,14.7993936 10.9230114,15.4174346 10.0010919,15.7435553 L10,26 L13,26 L13,17 C13,16.4477153 13.4477153,16 14,16 C14.5128358,16 14.9355072,16.3860402 14.9932723,16.8833789 L15,17 L15,26 L17,26 L17,17 C17,16.4477153 17.4477153,16 18,16 C18.5128358,16 18.9355072,16.3860402 18.9932723,16.8833789 L19,17 L19,26 L22,26 L21.9999135,15.7439108 C21.0775585,15.4178838 20.2932257,14.799684 19.7581204,14.0005166 Z M23.5,9 L8.5,9 C7.11928813,9 6,10.1192881 6,11.5 C6,12.8807119 7.11928813,14 8.5,14 C9.8254834,14 10.9100387,12.9684641 10.9946823,11.6643757 L11,11.5 C11,10.9477153 11.4477153,10.5 12,10.5 C12.5522847,10.5 13,10.9477153 13,11.5 C13,11.6692473 12.9906566,11.8363124 12.9724574,12.0007074 L19.0275426,12.0007074 C19.0093434,11.8363124 19,11.6692473 19,11.5 C19,10.9477153 19.4477153,10.5 20,10.5 C20.5522847,10.5 21,10.9477153 21,11.5 C21,12.8807119 22.1192881,14 23.5,14 C24.8807119,14 26,12.8807119 26,11.5 C26,10.1745166 24.9684641,9.08996133 23.6643757,9.00531768 L23.5,9 Z M24,4 C24.5522847,4 25,4.44771525 25,5 C25,5.51283584 24.6139598,5.93550716 24.1166211,5.99327227 L24,6 L8,6 C7.44771525,6 7,5.55228475 7,5 C7,4.48716416 7.38604019,4.06449284 7.88337887,4.00672773 L8,4 L24,4 Z" id="Combined-Shape" fill="#A139E3" fill-rule="nonzero"></path>
    </g>
</svg>