<?xml version="1.0" encoding="UTF-8"?>
<svg width="32px" height="32px" viewBox="0 0 32 32" version="1.1" xmlns="http://www.w3.org/2000/svg" xmlns:xlink="http://www.w3.org/1999/xlink">
    <!-- Generator: Sketch 64 (93537) - https://sketch.com -->
    <title>medicine-colour</title>
    <desc>Created with Sketch.</desc>
    <g id="medicine-colour" stroke="none" stroke-width="1" fill="none" fill-rule="evenodd">
        <g id="Group-2">
            <rect id="Rectangle" x="0" y="0" width="32" height="32"></rect>
        </g>
        <path d="M17,18 C19.7614237,18 22,20.2385763 22,23 C22,25.6887547 19.8776933,27.8818181 17.2168896,27.9953805 L17,28 L9.00391751,28 C6.24249376,28 4.00391751,25.7614237 4.00391751,23 C4.00391751,20.3112453 6.12622422,18.1181819 8.78702789,18.0046195 L9.00391751,18 L17,18 Z M26.6750254,4.00083317 L26.7270224,4.00191308 L26.7270224,4.00191308 L26.7727711,4.00362542 L26.899494,4.01392877 C27.1768752,4.0447489 27.422324,4.13311048 27.6446068,4.35539322 C27.8668895,4.57767596 27.9552511,4.8231248 27.9860712,5.10050597 C27.9910716,5.14550946 27.9943003,5.18370548 27.9963746,5.22722894 L27.9986974,5.29802656 L28,8.5 C28,8.59766047 27.9997109,8.66554104 27.9982537,8.72091974 L27.9963746,8.77277106 L27.9860712,8.89949403 C27.9552511,9.1768752 27.8668895,9.42232404 27.6446068,9.64460678 C27.422324,9.86688952 27.1768752,9.9552511 26.899494,9.98607123 C26.8544905,9.99107162 26.8162945,9.9943003 26.7727711,9.99637458 L26.7019734,9.99869735 L26,9.99818222 L26,11.0001822 L26.6126157,11.0002278 L26.7689442,11.003316 C26.8116686,11.0052092 26.8489589,11.0081527 26.8926686,11.0127058 C27.1625458,11.040818 27.3991722,11.1206794 27.6214411,11.3290565 C27.8555482,11.548532 27.9520153,11.7997482 27.9852373,12.0800591 L27.9961789,12.2050918 L28,12.46875 L27.9986336,26.7261445 C27.9969354,26.8014779 27.9932167,26.852615 27.9852373,26.9199409 C27.9520153,27.2002518 27.8555482,27.451468 27.6214411,27.6709435 C27.3991722,27.8793206 27.1625458,27.959182 26.8926686,27.9872942 L26.7689442,27.996684 L26.5,28 L22.9986244,28 C22.4463397,28 21.9986244,27.5522847 21.9986244,27 C21.9986244,26.4871642 22.3846646,26.0644928 22.8820033,26.0067277 L22.9986244,26 L26,26 L26,13 L16,13 L16,16 C16,16.5128358 15.6139598,16.9355072 15.1166211,16.9932723 L15,17 C14.4871642,17 14.0644928,16.6139598 14.0067277,16.1166211 L14,16 L14.000258,12.3568729 C14.0010564,12.2293954 14.0041148,12.1686076 14.0147377,12.0790309 C14.0479485,11.798982 14.144424,11.5478937 14.3785104,11.3285687 C14.6006461,11.1204408 14.8369973,11.0407199 15.1064952,11.0126639 C15.1936878,11.0035868 15.2552237,11.0009282 15.3856545,11.0002278 L16.001,11.0001822 L16,10.0019588 L15.999,9.99918222 L15.3534786,9.99950325 C15.3334534,9.99930625 15.315252,9.99903644 15.2983143,9.99867026 L15.2507318,9.99725904 L15.1353447,9.98959382 C14.8959236,9.96771055 14.6876251,9.90825812 14.4763038,9.74953236 C14.2193523,9.55653318 14.085167,9.29988638 14.0315646,9.01777851 C14.0131131,8.92066857 14.0052792,8.83590706 14.0020708,8.72321916 L14.0001822,8.5997308 L14.0009948,5.31569399 L14.0017289,5.28177707 L14.0017289,5.28177707 L14.002741,5.25073177 L14.0104062,5.1353447 C14.0322895,4.89592359 14.0917419,4.68762511 14.2504676,4.47630383 C14.4434668,4.21935226 14.7001136,4.08516699 14.9822215,4.03156464 C15.0793314,4.01311311 15.1640929,4.00527919 15.2767987,4.00207075 L15.4003116,4.00018222 L26.6750254,4.00083317 Z M12.0039175,20 L9.00391751,20 C7.34706326,20 6.00391751,21.3431458 6.00391751,23 C6.00391751,24.5976809 7.25283748,25.9036609 8.82764472,25.9949073 L9.00391751,26 L12.0039175,26 L12.0039175,20 Z M17,20 L14.0039175,20 L14.0039175,26 L17,26 C18.6568542,26 20,24.6568542 20,23 C20,21.4023191 18.75108,20.0963391 17.1762728,20.0050927 L17,20 Z M8,21.5 C8.55228475,21.5 9,21.9477153 9,22.5 C9,22.7761424 9.22385763,23 9.5,23 C10.0522847,23 10.5,23.4477153 10.5,24 C10.5,24.5522847 10.0522847,25 9.5,25 C8.11928813,25 7,23.8807119 7,22.5 C7,21.9477153 7.44771525,21.5 8,21.5 Z M24,9.99818222 L17.999,9.99918222 L18.0019588,10.9980412 L18.001,11.0001822 L24,11.0001822 L24,9.99818222 Z M26,5.999 L15.999,6 L16,8 L26,8 L26,5.999 Z" id="Combined-Shape" fill="#00BCD2" fill-rule="nonzero"></path>
    </g>
</svg>