<?xml version="1.0" encoding="UTF-8"?>
<svg width="32px" height="32px" viewBox="0 0 32 32" version="1.1" xmlns="http://www.w3.org/2000/svg" xmlns:xlink="http://www.w3.org/1999/xlink">
    <!-- Generator: Sketch 64 (93537) - https://sketch.com -->
    <title>media&amp;performing-arts-colour</title>
    <desc>Created with Sketch.</desc>
    <g id="media&amp;performing-arts-colour" stroke="none" stroke-width="1" fill="none" fill-rule="evenodd">
        <g id="Group-2">
            <rect id="Rectangle" x="0" y="0" width="32" height="32"></rect>
        </g>
        <path d="M16.5,5 C18.9852814,5 21,7.01471863 21,9.5 C21,10.9140475 20.3477843,12.1757619 19.3277704,13.0007255 L20.6231436,13.0007713 C20.6566308,13.0011839 20.6855329,13.0018039 20.7120091,13.0027245 L20.7120091,13.0027245 L20.8590307,13.0125987 C21.1316136,13.0393641 21.3660333,13.1139427 21.5914766,13.3131727 C21.8400986,13.5328864 21.9466751,13.7945098 21.983348,14.0861894 C21.992346,14.1577551 21.9965411,14.2121863 21.9984575,14.2924173 L21.9984575,14.2924173 L21.9983503,15.4120067 C23.3485435,14.7524984 24.6951092,14.0730048 26.0380483,13.373524 C26.1753876,13.3019897 26.2501659,13.2636326 26.3145672,13.2337953 L26.3145672,13.2337953 L26.4099096,13.192347 C26.7279937,13.0620129 27.0033147,13.0177253 27.369602,13.1932289 C27.7983593,13.3986644 27.9407392,13.7200044 27.9853047,14.097882 C27.9932849,14.1655472 27.9969792,14.2169588 27.9986578,14.2951523 L27.9986578,14.2951523 L28,23.5 C28,23.6327478 27.9995001,23.7102136 27.9962568,23.7752423 L27.9962568,23.7752423 L27.9854477,23.9014123 C27.9419309,24.2732537 27.8040209,24.5892809 27.3885251,24.7990681 C27.0263306,24.981943 26.747207,24.9433453 26.4280493,24.8193809 C26.3773151,24.7996752 26.3356414,24.7820023 26.2808834,24.7563699 L26.2808834,24.7563699 L21.9991693,22.616 L21.9992272,23.6654935 C21.9989162,23.6880532 21.9984874,23.7085505 21.9979007,23.727659 L21.995627,23.7814913 L21.9831052,23.915035 C21.9459215,24.2078564 21.8377733,24.4707166 21.587076,24.6900767 C21.3614997,24.887456 21.1279444,24.9610259 20.8556945,24.9874947 C20.7793175,24.9949202 20.7198349,24.998003 20.6187389,24.9992331 L20.6187389,24.9992331 L15.4131693,24.999 L16.7071068,26.2928932 C17.0976311,26.6834175 17.0976311,27.3165825 16.7071068,27.7071068 C16.3466228,28.0675907 15.7793918,28.0953203 15.3871006,27.7902954 L15.2928932,27.7071068 L12.9991693,25.414 L10.7071068,27.7071068 L10.6128994,27.7902954 C10.2206082,28.0953203 9.65337718,28.0675907 9.29289322,27.7071068 C8.90236893,27.3165825 8.90236893,26.6834175 9.29289322,26.2928932 L9.29289322,26.2928932 L10.5841693,25 L5.57142857,25 C4.97843938,25 4.86593623,24.9948868 4.60533417,24.8292543 L4.53011674,24.7799852 C4.06234718,24.4666161 4.00361194,24.186808 4.00016931,23.5935001 L4.00016931,23.5935001 L4.00075768,14.3350613 C4.00127701,14.2996498 4.00208127,14.2697093 4.00335505,14.2419108 L4.00335505,14.2419108 L4.01281578,14.1200429 C4.04007065,13.8625818 4.11574517,13.6342069 4.30549738,13.4173472 C4.63757403,13.0378311 4.85517944,13.0028588 5.4645827,13.0001481 L5.4645827,13.0001481 L6.05157428,13.0010438 C5.40267443,12.3657115 5,11.4798806 5,10.5 C5,8.56700338 6.56700338,7 8.5,7 C10.4329966,7 12,8.56700338 12,10.5 C12,11.4798806 11.5973256,12.3657115 10.9484257,13.0010438 L13.6723167,13.0007959 C12.6522528,12.1758336 12,10.9140877 12,9.5 C12,7.01471863 14.0147186,5 16.5,5 Z M20,14.999 L5.999,15 L6,23 L20,23 L20,14.999 Z M26,15.642 L25.5829821,15.8579931 C24.2027242,16.5617343 22.8186017,17.2447223 21.4306156,17.906955 L21.9991693,17.632 L22,20.382 L26,22.382 L26,15.642 Z M8.5,9 C7.67157288,9 7,9.67157288 7,10.5 C7,11.3284271 7.67157288,12 8.5,12 C9.32842712,12 10,11.3284271 10,10.5 C10,9.67157288 9.32842712,9 8.5,9 Z M16.5,7 C15.1192881,7 14,8.11928813 14,9.5 C14,10.8807119 15.1192881,12 16.5,12 C17.8807119,12 19,10.8807119 19,9.5 C19,8.11928813 17.8807119,7 16.5,7 Z" id="Combined-Shape" fill="#FE9700" fill-rule="nonzero"></path>
    </g>
</svg>