<?xml version="1.0" encoding="UTF-8"?>
<svg width="32px" height="32px" viewBox="0 0 32 32" version="1.1" xmlns="http://www.w3.org/2000/svg" xmlns:xlink="http://www.w3.org/1999/xlink">
    <!-- Generator: Sketch 64 (93537) - https://sketch.com -->
    <title>psychology-colour</title>
    <desc>Created with Sketch.</desc>
    <g id="psychology-colour" stroke="none" stroke-width="1" fill="none" fill-rule="evenodd">
        <g id="Group-2">
            <rect id="Rectangle" x="0" y="0" width="32" height="32"></rect>
        </g>
        <path d="M18.5,5 C20.2635996,5 21.7225424,6.3043908 21.9647055,8.0010495 L22,8 C23.6568542,8 25,9.34314575 25,11 C25,11.6042594 24.8213507,12.166793 24.5139884,12.6376645 C25.412345,13.2697687 26,14.3162572 26,15.5 C26,16.405062 25.6564702,17.2298883 25.0926895,17.8512001 C25.6525209,18.3957034 26,19.1572726 26,20 C26,21.3110599 25.158993,22.4256921 23.9870312,22.8338444 C23.8169162,25.1632881 21.8729516,27 19.5,27 C18.0864227,27 16.8250773,26.348218 16.0000977,25.3287879 C15.1749227,26.348218 13.9135773,27 12.5,27 C10.1270484,27 8.18308385,25.1632881 8.01220479,22.8339629 C6.84100697,22.4256921 6,21.3110599 6,20 C6,19.1572726 6.34747912,18.3957034 6.90697824,17.8507513 C6.34352978,17.2298883 6,16.405062 6,15.5 C6,14.3162572 6.58765496,13.2697687 7.48714512,12.636354 C7.17864932,12.166793 7,11.6042594 7,11 C7,9.34314575 8.34314575,8 10,8 L10.0352945,8.0010495 C10.2774576,6.3043908 11.7364004,5 13.5,5 C14.4799843,5 15.3658991,5.4027597 16.0012456,6.05178038 C16.6341009,5.4027597 17.5200157,5 18.5,5 Z M18.5,7 C17.6715729,7 17,7.67157288 17,8.5 L17,8.5 L17.0000889,12.1706743 C17.3128427,12.0601428 17.6493978,12 18,12 C18.5522847,12 19,12.4477153 19,13 C19,13.5522847 18.5522847,14 18,14 L18,14 L17.8833789,14.0067277 C17.3860402,14.0644928 17,14.4871642 17,15 L17,15 L17,19 C17,19.5128358 17.3860402,19.9355072 17.8833789,19.9932723 L18,20 C18.5522847,20 19,20.4477153 19,21 C19,21.5522847 18.5522847,22 18,22 C17.6493978,22 17.3128427,21.9398572 17.0000889,21.8293257 L17,22.5 L17.0053177,22.6643757 C17.0899613,23.9684641 18.1745166,25 19.5,25 C20.7716271,25 21.8215068,24.0505867 21.9794633,22.821936 C20.8243619,22.4035017 20,21.2980209 20,20 C20,19.4477153 20.4477153,19 21,19 C21.5522847,19 22,19.4477153 22,20 L22,20 L22.0067277,20.1166211 C22.0644928,20.6139598 22.4871642,21 23,21 C23.5522847,21 24,20.5522847 24,20 C24,19.4477153 23.5522847,19 23,19 L23,19 L22.8833789,18.9932723 C22.8647583,18.9911095 22.8462937,18.9884352 22.8279996,18.9852639 L22.6920352,18.9948211 L22.6920352,18.9948211 L22.5,19 C21.9477153,19 21.5,18.5522847 21.5,18 C21.5,17.4477153 21.9477153,17 22.5,17 L22.5,17 L22.64446,16.9931334 C23.4051119,16.9204487 24,16.2796961 24,15.5 C24,14.6715729 23.3284271,14 22.5,14 C21.6715729,14 21,14.6715729 21,15.5 L21,15.5 L20.9932723,15.6166211 C20.9355072,16.1139598 20.5128358,16.5 20,16.5 C19.4477153,16.5 19,16.0522847 19,15.5 C19,13.9298063 20.0339849,12.6011128 21.4582108,12.1576631 C21.6147178,12.058397 21.8005392,12 22,12 L22,12 L22.1166211,11.9932723 C22.6139598,11.9355072 23,11.5128358 23,11 C23,10.4477153 22.5522847,10 22,10 C21.4477153,10 21,10.4477153 21,11 L21,11 L20.9932723,11.1166211 C20.9355072,11.6139598 20.5128358,12 20,12 C19.4477153,12 19,11.5522847 19,11 C19,10.0977245 19.3983207,9.28848181 20.028711,8.73852294 C20.0100027,8.66276475 20,8.5825505 20,8.5 L20,8.5 L19.9931334,8.35553999 C19.9204487,7.59488808 19.2796961,7 18.5,7 Z M13.5,7 C12.7203039,7 12.0795513,7.59488808 12.0068666,8.35553999 L12,8.5 C12,8.5825505 11.9899973,8.66276475 11.9711379,8.73949686 C12.6016793,9.28848181 13,10.0977245 13,11 C13,11.5522847 12.5522847,12 12,12 C11.4871642,12 11.0644928,11.6139598 11.0067277,11.1166211 L11,11 C11,10.4477153 10.5522847,10 10,10 C9.44771525,10 9,10.4477153 9,11 C9,11.5128358 9.38604019,11.9355072 9.88337887,11.9932723 L10,12 C10.1994608,12 10.3852822,12.058397 10.5412998,12.1590266 C11.9660151,12.6011128 13,13.9298063 13,15.5 C13,16.0522847 12.5522847,16.5 12,16.5 C11.4871642,16.5 11.0644928,16.1139598 11.0067277,15.6166211 L11,15.5 C11,14.6715729 10.3284271,14 9.5,14 C8.67157288,14 8,14.6715729 8,15.5 C8,16.2796961 8.59488808,16.9204487 9.35553999,16.9931334 L9.5,17 C10.0522847,17 10.5,17.4477153 10.5,18 C10.5,18.5522847 10.0522847,19 9.5,19 C9.38920213,19 9.27960674,18.9948516 9.17143998,18.984781 L9.11662113,18.9932723 L9.11662113,18.9932723 L9,19 C8.44771525,19 8,19.4477153 8,20 C8,20.5522847 8.44771525,21 9,21 C9.51283584,21 9.93550716,20.6139598 9.99327227,20.1166211 L10,20 C10,19.4477153 10.4477153,19 11,19 C11.5522847,19 12,19.4477153 12,20 C12,21.2980209 11.1756381,22.4035017 10.0218994,22.8214576 C10.1784932,24.0505867 11.2283729,25 12.5,25 C13.8254834,25 14.9100387,23.9684641 14.9946823,22.6643757 L15,22.5 L15.0009007,21.8289758 C14.6878673,21.9397302 14.350972,22 14,22 C13.4477153,22 13,21.5522847 13,21 C13,20.4477153 13.4477153,20 14,20 L14,20 L14.1166211,19.9932723 C14.6139598,19.9355072 15,19.5128358 15,19 L15,19 L15,15 C15,14.4871642 14.6139598,14.0644928 14.1166211,14.0067277 L14,14 C13.4477153,14 13,13.5522847 13,13 C13,12.4477153 13.4477153,12 14,12 C14.350972,12 14.6878673,12.0602698 15.0009007,12.1710242 L15,8.5 C15,7.67157288 14.3284271,7 13.5,7 Z" id="Combined-Shape" fill="#F25D9F" fill-rule="nonzero"></path>
    </g>
</svg>