<?xml version="1.0" encoding="UTF-8"?>
<svg width="32px" height="32px" viewBox="0 0 32 32" version="1.1" xmlns="http://www.w3.org/2000/svg" xmlns:xlink="http://www.w3.org/1999/xlink">
    <!-- Generator: Sketch 64 (93537) - https://sketch.com -->
    <title>social-sciences-colour</title>
    <desc>Created with Sketch.</desc>
    <g id="social-sciences-colour" stroke="none" stroke-width="1" fill="none" fill-rule="evenodd">
        <g id="Group-2">
            <rect id="Rectangle" x="0" y="0" width="32" height="32"></rect>
        </g>
        <path d="M16,6 C18.7614237,6 21,8.23857625 21,11 C21,12.9366301 19.8989701,14.6161008 18.28873,15.4465925 C20.4001442,16.3041758 21.9070667,18.3154655 21.9958554,20.6872906 L22,20.9090909 L22,25 L22,25 C22,25.5128358 21.6139598,25.9355072 21.1166211,25.9932723 L21,26 L21,26 L11,26 L11,26 C10.4871642,26 10.0644928,25.6139598 10.0067277,25.1166211 L10,25 L10,20.9090909 C10,18.4413897 11.5343488,16.3308239 13.7110436,15.4453474 C12.1010299,14.6161008 11,12.9366301 11,11 C11,8.23857625 13.2385763,6 16,6 Z M16,17 C13.8559582,17 12.1120911,18.6463773 12.0051932,20.7082946 L12,20.9090909 L12,24 L20,24 L20,20.9090909 C20,18.7543084 18.2132044,17 16,17 Z M8,12 C9.65685425,12 11,13.3431458 11,15 C11,16.6568542 9.65685425,18 8,18 L8,18 C6.9456382,18 6.08183488,18.8158778 6.00548574,19.8507377 L6,20 L6,22 L7,22 C7.55228475,22 8,22.4477153 8,23 C8,23.5128358 7.61395981,23.9355072 7.11662113,23.9932723 L7,24 L5,24 L5,24 C4.48716416,24 4.06449284,23.6139598 4.00672773,23.1166211 L4,23 L4,20 C4,18.6909811 4.62879289,17.5288247 5.60081219,16.7990972 C5.2234229,16.2993184 5,15.6757508 5,15 C5,13.3431458 6.34314575,12 8,12 Z M24,12 C25.6568542,12 27,13.3431458 27,15 C27,15.6752991 26.7768757,16.2984847 26.4003275,16.7998565 C27.3215476,17.491594 27.9347915,18.5732959 27.9951047,19.8003597 L28,20 L28,23 L28,23 C28,23.5128358 27.6139598,23.9355072 27.1166211,23.9932723 L27,24 L27,24 L25,24 C24.4477153,24 24,23.5522847 24,23 C24,22.4871642 24.3860402,22.0644928 24.8833789,22.0067277 L25,22 L26,22 L26,20 C26,18.8954305 25.1045695,18 24,18 L23.8237272,17.9949073 C22.24892,17.9036609 21,16.5976809 21,15 C21,13.3431458 22.3431458,12 24,12 Z M8,14 C7.44771525,14 7,14.4477153 7,15 C7,15.5522847 7.44771525,16 8,16 C8.55228475,16 9,15.5522847 9,15 C9,14.4477153 8.55228475,14 8,14 Z M24,14 C23.4477153,14 23,14.4477153 23,15 C23,15.5522847 23.4477153,16 24,16 C24.5522847,16 25,15.5522847 25,15 C25,14.4477153 24.5522847,14 24,14 Z M16,8 C14.3431458,8 13,9.34314575 13,11 C13,12.6568542 14.3431458,14 16,14 C17.6568542,14 19,12.6568542 19,11 C19,9.34314575 17.6568542,8 16,8 Z" id="Combined-Shape" fill="#EC1C47" fill-rule="nonzero"></path>
    </g>
</svg>