<?xml version="1.0" encoding="UTF-8"?>
<svg width="32px" height="32px" viewBox="0 0 32 32" version="1.1" xmlns="http://www.w3.org/2000/svg" xmlns:xlink="http://www.w3.org/1999/xlink">
    <!-- Generator: Sketch 64 (93537) - https://sketch.com -->
    <title>technology&amp;engineering-colour</title>
    <desc>Created with Sketch.</desc>
    <g id="technology&amp;engineering-colour" stroke="none" stroke-width="1" fill="none" fill-rule="evenodd">
        <g id="Group-2">
            <rect id="Rectangle" x="0" y="0" width="32" height="32"></rect>
        </g>
        <path d="M9.70710678,22.2928932 C10.0675907,22.6533772 10.0953203,23.2206082 9.79029539,23.6128994 L9.70710678,23.7071068 L5.70710678,27.7071068 C5.31658249,28.0976311 4.68341751,28.0976311 4.29289322,27.7071068 C3.93240926,27.3466228 3.90467972,26.7793918 4.20970461,26.3871006 L4.29289322,26.2928932 L8.29289322,22.2928932 C8.68341751,21.9023689 9.31658249,21.9023689 9.70710678,22.2928932 Z M11.7071068,25.2928932 C12.0675907,25.6533772 12.0953203,26.2206082 11.7902954,26.6128994 L11.7071068,26.7071068 L10.7071068,27.7071068 C10.3165825,28.0976311 9.68341751,28.0976311 9.29289322,27.7071068 C8.93240926,27.3466228 8.90467972,26.7793918 9.20970461,26.3871006 L9.29289322,26.2928932 L10.2928932,25.2928932 C10.6834175,24.9023689 11.3165825,24.9023689 11.7071068,25.2928932 Z M27.4852814,4.51471863 C28.6730438,5.70248106 27.5494848,8.58060431 26.2020896,10.03534 L26.0710678,10.1715729 L25.363961,10.8786797 L25.363961,10.8772654 L18.9277323,17.3145061 C19.9595695,19.2477466 18.7553475,23.0183787 16.4861834,25.40883 L16.3171537,25.5823413 C15.8126388,26.0868562 15.2201763,26.0980107 14.6967658,25.6573254 L14.5857205,25.5559921 L12.0361875,23.0043063 L11.9343756,22.8875635 L11.9249206,22.8756101 L11.9249206,22.8756101 C11.8861571,22.8458448 11.8483276,22.813067 11.8075735,22.7751009 L11.7437665,22.7139884 L9.26916906,20.239391 C9.18938608,20.1577777 9.15222406,20.1140713 9.09528685,20.032974 L9.11318199,20.058878 L9.02028478,19.9837065 L9.02028478,19.9837065 L8.92886625,19.8991378 L6.50972041,17.4802832 C5.93172487,16.9022876 5.78964607,16.310859 6.41765875,15.6828463 C8.79574845,13.3047566 12.7060096,12.0146978 14.6864183,13.0727614 L16.1609424,11.5965758 L16.1715729,11.5857864 L16.1715729,11.5857864 L16.1835937,11.5751798 L21.4540765,6.30328284 L21.8284271,5.92893219 C23.2319514,4.52540796 26.259204,3.28864128 27.4852814,4.51471863 Z M17.3071864,18.9340401 L14.0502525,22.1923882 L15.4340605,23.5747819 L15.5531075,23.4270557 C16.0902548,22.73325 16.5380748,21.9327049 16.8494314,21.1226803 L16.9743776,20.7752301 L17.0707463,20.4667865 C17.2137484,19.9735503 17.2868675,19.5287425 17.3045909,19.1623007 L17.3089034,18.9857489 L17.3071864,18.9340401 Z M6.70710678,20.2928932 C7.06759074,20.6533772 7.09532028,21.2206082 6.79029539,21.6128994 L6.70710678,21.7071068 L5.70710678,22.7071068 C5.31658249,23.0976311 4.68341751,23.0976311 4.29289322,22.7071068 C3.93240926,22.3466228 3.90467972,21.7793918 4.20970461,21.3871006 L4.29289322,21.2928932 L5.29289322,20.2928932 C5.68341751,19.9023689 6.31658249,19.9023689 6.70710678,20.2928932 Z M16.8786797,13.7056926 L15.3581375,15.2271776 L11.2225325,19.3632539 L12.6367461,20.7774675 L18.2928932,15.1213203 L16.8786797,13.7056926 Z M13.0142511,14.6910966 C12.6181816,14.6907007 12.1086557,14.7624179 11.5332135,14.9292537 C10.6211193,15.1936938 9.68766473,15.6482035 8.87272019,16.2249958 L8.57294432,16.4468925 L8.42380387,16.5659395 L9.80831895,17.9490404 L13.0645457,14.6913994 L13.0142511,14.6910966 Z M22.5355339,8.04883832 L18.2928932,12.291479 L19.7071068,13.7056926 L23.9497475,9.46305188 L22.5355339,8.04883832 Z M26.0024785,5.99752155 L25.8594676,6.01636322 C25.6321861,6.05476871 25.3481392,6.1409606 25.0350536,6.26886995 C24.7915152,6.36836616 24.5413851,6.48920348 24.3053005,6.61742865 L24.0746622,6.74759965 L24.0664201,6.75271159 L25.2465813,7.93287281 L25.3911086,7.67893992 L25.5239778,7.42223608 L25.5239778,7.42223608 L25.6472449,7.16079205 L25.7311301,6.96494645 C25.8590394,6.65186079 25.9452313,6.36781386 25.9836368,6.14053239 L26.0008972,6.01119717 L26.0024785,5.99752155 Z" id="Combined-Shape" fill="#00BEF0" fill-rule="nonzero"></path>
    </g>
</svg>